<svg width="560" height="190" viewBox="0 0 560 190" fill="none" xmlns="http://www.w3.org/2000/svg">
<path fill-rule="evenodd" clip-rule="evenodd" d="M96.7048 137.379C94.562 137.379 92.3862 137.181 90.1774 136.786C88.0016 136.423 85.7928 135.929 83.5511 135.302C81.3093 134.709 79.0676 134.049 76.8258 133.324C74.5841 132.599 72.3753 131.89 70.1995 131.198C67.5951 132.78 64.8754 134.016 62.0402 134.907C59.2051 135.83 56.2216 136.291 53.0897 136.291C50.4194 136.291 48.3755 135.813 46.9579 134.857C45.5403 133.901 44.8316 132.632 44.8316 131.049C44.8316 128.973 45.9854 127.374 48.2931 126.253C50.6007 125.132 54.0952 124.571 58.7765 124.571C60.8205 124.571 62.8809 124.72 64.9578 125.017C67.0347 125.313 69.1446 125.692 71.2874 126.154C73.3643 124.341 75.3423 122.297 77.2214 120.022C79.1005 117.747 80.9302 115.308 82.7104 112.703C81.3588 112.868 79.9906 113 78.606 113.099C77.2214 113.165 75.8203 113.198 74.4028 113.198C69.227 113.198 64.6116 112.588 60.5567 111.368C56.5018 110.116 53.0733 108.418 50.2711 106.275C47.4689 104.099 45.3261 101.561 43.8426 98.6596C42.392 95.7255 41.6667 92.5772 41.6667 89.2146C41.6667 85.2586 42.425 81.7476 43.9415 78.6817C45.4579 75.6158 47.5348 73.0444 50.1722 70.9675C52.8425 68.8576 55.9743 67.2587 59.5677 66.1708C63.1611 65.0499 67.0182 64.4895 71.1391 64.4895C73.7434 64.4895 76.1171 64.6873 78.2599 65.0829C80.4027 65.4785 82.2489 65.9071 83.7983 66.3686C85.3807 66.8301 86.617 67.2752 87.5071 67.7038C88.3972 68.1323 88.8917 68.3631 88.9906 68.3961L87.7049 70.6213C87.6719 70.6213 87.2598 70.44 86.4686 70.0774C85.6774 69.6818 84.5895 69.2697 83.2049 68.8411C81.8203 68.4125 80.172 68.0169 78.2599 67.6543C76.3478 67.2917 74.2874 67.1104 72.0786 67.1104C68.1885 67.1104 64.6941 67.6873 61.5952 68.8411C58.5293 69.962 55.9249 71.5114 53.782 73.4894C51.6722 75.4674 50.0403 77.7916 48.8865 80.4619C47.7656 83.0992 47.2052 85.9179 47.2052 88.9179C47.2052 92.2805 47.9799 95.297 49.5293 97.9673C51.0788 100.605 53.1557 102.846 55.7601 104.692C58.3644 106.506 61.3809 107.89 64.8094 108.846C68.271 109.802 71.8973 110.28 75.6885 110.28C77.2379 110.28 78.7544 110.231 80.2379 110.132C81.7544 110.033 83.2544 109.868 84.7379 109.638C87.0785 105.978 89.3367 102.187 91.5125 98.264C93.7213 94.3409 95.9136 90.5003 98.0894 86.7421C100.265 82.9839 102.458 79.4235 104.666 76.0608C106.875 72.6653 109.166 69.6982 111.54 67.1598C113.946 64.6214 116.468 62.6104 119.106 61.1269C121.743 59.6104 124.578 58.8522 127.611 58.8522C128.798 58.8522 129.902 59.05 130.924 59.4456C131.946 59.8082 132.836 60.3851 133.595 61.1763C134.353 61.9346 134.946 62.9071 135.375 64.0939C135.803 65.2807 136.018 66.6653 136.018 68.2477C136.018 70.8191 135.523 73.5389 134.534 76.407C133.545 79.2421 132.111 82.0938 130.232 84.9619C128.353 87.797 126.062 90.5992 123.358 93.3684C120.655 96.1046 117.589 98.6431 114.161 100.984C110.732 103.324 106.974 105.418 102.886 107.264C98.7982 109.077 94.4466 110.495 89.8312 111.517C87.6554 114.517 85.4137 117.352 83.106 120.022C80.7983 122.659 78.3588 125.049 75.7874 127.192C78.2929 127.852 80.7489 128.56 83.1555 129.319C85.562 130.044 87.8367 130.703 89.9796 131.297C92.1554 131.923 94.1664 132.434 96.0125 132.83C97.8587 133.258 99.4905 133.473 100.908 133.473C103.018 133.473 105.045 133.11 106.99 132.385C108.968 131.659 110.93 130.374 112.875 128.527L114.902 130.11C114.87 130.143 114.688 130.357 114.359 130.753C114.029 131.115 113.534 131.56 112.875 132.088C112.216 132.648 111.392 133.225 110.403 133.819C109.414 134.445 108.243 135.022 106.892 135.549C105.573 136.077 104.056 136.505 102.342 136.835C100.661 137.198 98.7817 137.379 96.7048 137.379ZM127.809 61.5719C125.963 61.5719 124.133 62.2313 122.32 63.5499C120.507 64.8686 118.677 66.6653 116.831 68.94C114.985 71.1818 113.106 73.8356 111.194 76.9015C109.315 79.9344 107.37 83.1817 105.359 86.6432C103.348 90.0717 101.254 93.6157 99.0784 97.275C96.9026 100.934 94.6279 104.528 92.2543 108.055C96.2103 106.967 99.9685 105.55 103.529 103.802C107.122 102.055 110.435 100.094 113.468 97.9178C116.534 95.742 119.287 93.4179 121.727 90.9453C124.199 88.4399 126.293 85.8849 128.007 83.2806C129.754 80.6762 131.089 78.1048 132.012 75.5663C132.935 72.9949 133.397 70.5389 133.397 68.1983C133.397 66.9785 133.248 65.9565 132.952 65.1323C132.655 64.2752 132.243 63.5829 131.716 63.0554C131.221 62.528 130.628 62.1489 129.935 61.9181C129.276 61.6873 128.567 61.5719 127.809 61.5719ZM52.793 133.72C55.2326 133.72 57.5403 133.374 59.7161 132.681C61.8919 132.022 64.0018 131.099 66.0457 129.912C63.8699 129.286 61.76 128.775 59.7161 128.379C57.7051 127.984 55.7601 127.786 53.8809 127.786C51.6392 127.786 49.9909 128.115 48.9359 128.775C47.914 129.434 47.403 130.192 47.403 131.049C47.403 131.313 47.4689 131.593 47.6008 131.89C47.7656 132.22 48.0458 132.516 48.4414 132.78C48.837 133.044 49.381 133.258 50.0733 133.423C50.7656 133.621 51.6722 133.72 52.793 133.72ZM147.342 87.1377C147.342 87.797 147.177 88.4893 146.847 89.2146C146.518 89.9069 146.089 90.5333 145.562 91.0937C145.067 91.6541 144.507 92.1157 143.88 92.4783C143.254 92.8409 142.628 93.0223 142.001 93.0223C141.441 93.0223 141.012 92.8245 140.715 92.4289C140.419 92.0003 140.27 91.4893 140.27 90.8959C140.27 90.3684 140.369 89.7421 140.567 89.0168C140.765 88.2915 141.062 87.6157 141.457 86.9893C141.853 86.33 142.331 85.7696 142.891 85.308C143.452 84.8465 144.095 84.6157 144.82 84.6157C145.512 84.6157 146.106 84.8795 146.6 85.4069C147.095 85.9344 147.342 86.5113 147.342 87.1377ZM138.095 98.1156C137.666 98.9728 137.056 100.11 136.265 101.528C135.507 102.912 134.683 104.445 133.792 106.127C132.902 107.775 131.996 109.522 131.073 111.368C130.15 113.181 129.309 114.962 128.551 116.709C127.825 118.423 127.232 120.039 126.771 121.555C126.309 123.071 126.078 124.357 126.078 125.412C126.078 126.368 126.276 127.028 126.672 127.39C127.067 127.72 127.628 127.885 128.353 127.885C129.705 127.885 131.023 127.44 132.309 126.549C133.595 125.659 134.864 124.506 136.117 123.088C137.402 121.637 138.655 119.989 139.875 118.143C141.095 116.297 142.314 114.434 143.534 112.555C145.215 109.918 146.732 107.511 148.084 105.335C149.468 103.127 150.787 101.231 152.04 99.6486C153.325 98.0662 154.562 96.8464 155.748 95.9893C156.968 95.0992 158.254 94.6541 159.605 94.6541C160.331 94.6541 161.023 94.8025 161.682 95.0992C162.375 95.3959 162.968 95.8409 163.463 96.4343C163.99 96.9948 164.402 97.6871 164.699 98.5112C164.996 99.3354 165.144 100.291 165.144 101.379C165.144 102.236 165.045 103.127 164.847 104.05C166.298 102.632 167.649 101.462 168.902 100.539C170.155 99.6156 171.309 98.8903 172.364 98.3629C173.419 97.8024 174.391 97.4068 175.281 97.1761C176.171 96.9453 176.979 96.8299 177.704 96.8299C178.331 96.8299 179.056 96.9453 179.88 97.1761C180.704 97.4068 181.479 97.8354 182.204 98.4618C182.929 99.0881 183.539 99.9618 184.034 101.083C184.561 102.171 184.825 103.588 184.825 105.335C184.825 106.753 184.578 108.203 184.083 109.687C183.589 111.138 182.962 112.605 182.204 114.088C181.446 115.539 180.638 116.973 179.781 118.39C178.924 119.808 178.116 121.176 177.358 122.495C176.6 123.813 175.973 125.082 175.479 126.302C174.984 127.489 174.737 128.577 174.737 129.566C174.737 130.324 174.902 130.835 175.232 131.099C175.561 131.363 175.924 131.495 176.32 131.495C177.572 131.495 178.973 130.885 180.523 129.665C182.072 128.412 183.638 126.846 185.221 124.967C186.836 123.088 188.435 121.044 190.017 118.835C191.6 116.626 193.034 114.533 194.319 112.555L194.437 112.646C194.463 112.566 194.49 112.486 194.517 112.407C195.276 110.198 196.298 108.154 197.583 106.275C198.869 104.363 200.336 102.649 201.984 101.132C203.666 99.5826 205.413 98.2805 207.226 97.2255C209.039 96.1376 210.852 95.297 212.665 94.7036C214.512 94.1102 216.242 93.8135 217.858 93.8135C220.001 93.8135 221.682 94.0772 222.902 94.6047C224.121 95.1321 225.045 95.6596 225.671 96.1871C226.132 95.264 226.759 94.0937 227.55 92.6761C228.341 91.2256 229.264 89.6267 230.319 87.8794C231.374 86.0992 232.544 84.2201 233.83 82.2421C235.116 80.2311 236.484 78.2202 237.935 76.2092C239.385 74.1652 240.902 72.1543 242.484 70.1763C244.099 68.1983 245.731 66.3521 247.38 64.6378L249.506 66.0225C249.143 66.5499 248.55 67.4235 247.726 68.6433C246.902 69.8631 245.945 71.3136 244.858 72.9949C243.77 74.6762 242.583 76.5389 241.297 78.5828C240.044 80.6267 238.775 82.7366 237.489 84.9124C236.237 87.0882 235.001 89.297 233.781 91.5387C232.594 93.7475 231.539 95.8739 230.616 97.9178C229.165 101.083 227.962 103.918 227.006 106.423C226.083 108.896 225.341 111.105 224.781 113.05C224.253 114.995 223.874 116.692 223.643 118.143C223.446 119.561 223.347 120.78 223.347 121.802C223.347 123.681 223.627 124.984 224.187 125.709C224.781 126.434 225.572 126.797 226.561 126.797C227.583 126.797 228.555 126.533 229.479 126.006C230.435 125.478 231.341 124.802 232.198 123.978C233.088 123.154 233.913 122.214 234.671 121.159C235.462 120.104 236.187 119.05 236.847 117.995C237.539 116.94 238.165 115.934 238.726 114.978C239.213 114.146 239.651 113.426 240.039 112.819C240.737 111.631 241.568 110.405 242.533 109.143C244.347 106.736 246.226 104.709 248.171 103.061C250.149 101.412 252.077 100.094 253.956 99.1046C255.868 98.0827 257.682 97.3574 259.396 96.9288C261.11 96.5003 262.643 96.286 263.995 96.286C267.028 96.286 269.319 96.797 270.868 97.8189C272.418 98.8079 273.357 100.341 273.687 102.418C274.346 101.594 275.039 100.769 275.764 99.9453C276.489 99.1211 277.231 98.2805 277.989 97.4233L279.572 98.1156C279.143 98.9728 278.533 100.094 277.742 101.478C276.984 102.863 276.16 104.396 275.269 106.077C275.245 106.122 275.221 106.167 275.196 106.213C275.97 105.836 276.756 105.494 277.557 105.187C279.535 104.429 281.529 103.868 283.54 103.506C285.584 103.143 287.529 102.962 289.375 102.962C293.199 102.962 296.859 103.423 300.353 104.346C303.848 105.236 307.21 106.835 310.441 109.143L308.71 111.072C308.677 111.039 308.249 110.742 307.425 110.181C306.6 109.588 305.414 108.945 303.864 108.253C302.315 107.561 300.386 106.934 298.079 106.374C295.804 105.813 293.199 105.533 290.265 105.533C287.43 105.533 284.678 105.912 282.007 106.671C279.37 107.429 277.029 108.583 274.985 110.132C272.974 111.648 271.359 113.577 270.139 115.918C268.919 118.225 268.31 120.945 268.31 124.077C268.31 126.319 268.738 128.396 269.595 130.308C270.485 132.22 271.705 133.868 273.255 135.253C274.804 136.67 276.667 137.775 278.842 138.566C281.018 139.357 283.425 139.753 286.062 139.753C290.018 139.753 293.809 138.912 297.436 137.231C301.062 135.549 304.557 133.275 307.919 130.407C311.282 127.538 314.513 124.192 317.611 120.368C320.743 116.544 323.743 112.506 326.611 108.253C329.512 104 332.315 99.6321 335.018 95.1486C337.721 90.6651 340.342 86.3465 342.88 82.1927C345.419 78.0059 347.891 74.0993 350.298 70.473C352.705 66.8137 355.062 63.6653 357.369 61.028L359.595 62.3631C358.144 66.7807 356.891 70.6708 355.836 74.0334C354.781 77.363 353.858 80.2971 353.067 82.8355C352.309 85.374 351.65 87.5663 351.089 89.4124C350.562 91.2585 350.1 92.9069 349.705 94.3574C349.309 95.8079 348.946 97.1266 348.617 98.3134C348.32 99.4673 348.007 100.621 347.677 101.775C347.38 102.929 347.034 104.149 346.639 105.434C346.243 106.72 345.765 108.22 345.205 109.934C344.644 111.616 343.985 113.577 343.227 115.819C342.468 118.028 341.545 120.648 340.457 123.681C343.227 119.495 346.062 115.374 348.963 111.319C351.897 107.264 354.814 103.341 357.715 99.5497C360.617 95.7585 363.452 92.1321 366.221 88.6706C369.023 85.2091 371.66 81.9949 374.133 79.0278C376.638 76.0608 378.93 73.374 381.007 70.9675C383.116 68.5279 384.946 66.451 386.496 64.7367C388.045 63.0225 389.248 61.6873 390.105 60.7313C390.995 59.7752 391.457 59.2807 391.49 59.2478L393.567 60.7807C391.622 65.5939 389.693 70.4235 387.781 75.2696C385.869 80.0828 384.023 84.7806 382.243 89.3629C380.496 93.9453 378.864 98.3629 377.347 102.616C375.831 106.868 374.512 110.857 373.391 114.583C372.27 118.275 371.38 121.654 370.721 124.72C370.095 127.753 369.781 130.357 369.781 132.533C369.781 135.104 370.078 137.429 370.671 139.505C371.298 141.582 372.188 143.346 373.342 144.797C374.496 146.247 375.913 147.352 377.594 148.11C379.309 148.901 381.237 149.297 383.38 149.297C384.996 149.297 386.561 149.115 388.078 148.753C389.627 148.39 390.995 147.994 392.182 147.566C393.369 147.137 394.325 146.742 395.05 146.379C395.776 146.016 396.155 145.835 396.188 145.835L397.473 148.06C397.375 148.126 396.93 148.357 396.138 148.753C395.347 149.148 394.309 149.577 393.023 150.038C391.737 150.5 390.27 150.912 388.622 151.275C386.974 151.67 385.259 151.868 383.479 151.868C380.578 151.868 377.974 151.357 375.666 150.335C373.358 149.313 371.397 147.863 369.781 145.983C368.199 144.137 366.979 141.896 366.122 139.258C365.265 136.654 364.836 133.753 364.836 130.555C364.836 127.489 365.215 124.126 365.974 120.467C366.732 116.775 367.721 112.984 368.941 109.094C370.16 105.203 371.529 101.313 373.045 97.4233C374.594 93.5332 376.144 89.841 377.693 86.3465C379.276 82.819 380.776 79.6048 382.193 76.7037C383.611 73.7696 384.831 71.3301 385.853 69.3851C384.007 71.4949 381.897 73.9345 379.523 76.7037C377.149 79.4399 374.611 82.4564 371.908 85.7531C369.237 89.0168 366.452 92.5113 363.551 96.2365C360.65 99.9288 357.715 103.786 354.748 107.808C351.814 111.797 348.897 115.901 345.996 120.121C343.095 124.308 340.326 128.527 337.688 132.78L335.315 131.989C335.809 126.615 336.617 121.291 337.738 116.017C338.891 110.709 340.177 105.616 341.595 100.736C343.045 95.8244 344.562 91.2256 346.144 86.9399C347.76 82.6212 349.292 78.7641 350.743 75.3685C348.534 78.4015 346.325 81.6982 344.117 85.2586C341.941 88.786 339.732 92.4289 337.49 96.1871C335.249 99.9123 332.941 103.671 330.567 107.462C328.194 111.22 325.721 114.846 323.15 118.341C320.578 121.802 317.859 125.049 314.991 128.082C312.155 131.082 309.122 133.687 305.892 135.896C302.694 138.137 299.265 139.901 295.606 141.187C291.98 142.472 288.09 143.115 283.936 143.115C280.738 143.115 277.837 142.637 275.233 141.681C272.628 140.725 270.386 139.407 268.507 137.725C266.661 136.077 265.244 134.132 264.255 131.89C263.356 129.918 262.852 127.805 262.744 125.552C262.688 125.131 262.66 124.689 262.66 124.225V123.385C262.693 122.923 262.742 122.561 262.808 122.297C261.16 124.374 259.577 126.088 258.061 127.44C256.577 128.791 255.127 129.863 253.709 130.654C252.325 131.445 250.973 131.989 249.654 132.286C248.369 132.615 247.132 132.78 245.945 132.78C244.693 132.78 243.506 132.566 242.385 132.137C241.297 131.742 240.341 131.148 239.517 130.357C238.66 129.566 238 128.593 237.539 127.44C237.044 126.286 236.797 124.951 236.797 123.434C236.797 123.097 236.811 122.751 236.839 122.397C236.696 122.594 236.55 122.791 236.402 122.989C235.511 124.143 234.522 125.198 233.435 126.154C232.38 127.11 231.193 127.901 229.874 128.527C228.588 129.121 227.187 129.418 225.671 129.418C224.946 129.418 224.171 129.319 223.347 129.121C222.556 128.923 221.814 128.577 221.121 128.082C220.429 127.588 219.819 126.912 219.292 126.055C218.764 125.165 218.418 124.044 218.253 122.692C215.781 125.363 213.374 127.39 211.034 128.775C208.693 130.126 206.484 130.802 204.407 130.802C203.352 130.802 202.182 130.621 200.896 130.258C199.644 129.896 198.457 129.269 197.336 128.379C196.215 127.489 195.276 126.319 194.517 124.868C193.759 123.385 193.38 121.555 193.38 119.379C193.38 119.029 193.388 118.681 193.403 118.336C193.002 118.958 192.566 119.619 192.094 120.319C191.072 121.802 189.918 123.368 188.633 125.017C187.38 126.632 186.028 128.132 184.578 129.516C183.127 130.868 181.627 131.989 180.078 132.879C178.561 133.769 177.028 134.214 175.479 134.214C174.589 134.214 173.781 134.066 173.056 133.769C172.331 133.473 171.704 133.06 171.177 132.533C170.682 132.005 170.287 131.396 169.99 130.703C169.693 129.978 169.545 129.22 169.545 128.429C169.545 127.143 169.825 125.758 170.386 124.275C170.979 122.758 171.704 121.209 172.561 119.626C173.419 118.044 174.358 116.462 175.38 114.879C176.402 113.264 177.342 111.731 178.199 110.28C179.056 108.83 179.765 107.495 180.325 106.275C180.918 105.022 181.215 103.951 181.215 103.061C181.215 102.039 180.935 101.182 180.375 100.489C179.847 99.7969 179.089 99.4508 178.1 99.4508C177.045 99.4508 175.825 99.8958 174.441 100.786C173.056 101.643 171.506 102.912 169.792 104.594C168.078 106.275 166.199 108.352 164.155 110.824C162.144 113.264 159.952 116.05 157.578 119.181C156.226 120.995 154.908 122.742 153.622 124.423C153.062 125.148 152.501 125.89 151.941 126.648L150.259 128.923C149.699 129.648 149.171 130.341 148.677 131C148.182 131.692 147.737 132.286 147.342 132.78L142.99 131L148.776 123.039C149.6 121.918 150.441 120.714 151.298 119.429C152.155 118.143 152.996 116.824 153.82 115.473C154.677 114.088 155.485 112.703 156.243 111.319C157.001 109.934 157.71 108.583 158.369 107.264C159.325 105.286 159.985 103.654 160.347 102.368C160.71 101.05 160.891 99.9947 160.891 99.2035C160.891 98.3134 160.726 97.7365 160.397 97.4728C160.067 97.1761 159.605 97.0277 159.012 97.0277C158.386 97.0277 157.66 97.3574 156.836 98.0167C156.045 98.6431 155.221 99.4673 154.364 100.489C153.507 101.478 152.633 102.616 151.743 103.901C150.886 105.154 150.062 106.407 149.27 107.66C148.479 108.912 147.737 110.099 147.045 111.22C146.353 112.341 145.776 113.247 145.314 113.94C144.358 115.654 143.27 117.484 142.051 119.429C140.864 121.374 139.529 123.187 138.045 124.868C136.562 126.517 134.93 127.885 133.15 128.973C131.369 130.06 129.424 130.604 127.314 130.604C125.336 130.604 123.82 130.011 122.765 128.824C121.71 127.637 121.183 126.104 121.183 124.225C121.183 122.017 121.694 119.709 122.716 117.302C123.738 114.896 125.007 112.522 126.523 110.181C128.073 107.808 129.738 105.533 131.518 103.357C133.331 101.182 134.996 99.2035 136.512 97.4233L138.095 98.1156ZM218.204 118.984C218.369 116.544 218.929 113.676 219.885 110.379C220.874 107.05 222.374 103.225 224.385 98.9068C223.924 98.2145 223.264 97.6871 222.407 97.3244C221.583 96.9288 220.643 96.731 219.589 96.731C217.973 96.731 216.325 97.0607 214.644 97.72C212.995 98.3794 211.396 99.2695 209.847 100.39C208.33 101.511 206.896 102.846 205.545 104.396C204.193 105.912 203.006 107.544 201.984 109.291C200.995 111.039 200.204 112.868 199.611 114.78C199.05 116.659 198.77 118.522 198.77 120.368C198.77 122.841 199.281 124.769 200.303 126.154C201.358 127.538 202.759 128.231 204.506 128.231C205.33 128.231 206.237 128.066 207.226 127.736C208.215 127.407 209.286 126.879 210.44 126.154C211.627 125.396 212.863 124.44 214.149 123.286C215.435 122.099 216.786 120.665 218.204 118.984ZM265.973 114.286C265.346 115.341 264.819 116.214 264.39 116.907C263.204 118.423 261.984 119.973 260.731 121.555C259.478 123.104 258.16 124.522 256.775 125.808C255.39 127.093 253.907 128.148 252.325 128.973C250.742 129.764 249.044 130.159 247.231 130.159C245.649 130.159 244.429 129.648 243.572 128.626C242.715 127.604 242.286 126.154 242.286 124.275C242.286 122.066 242.896 119.593 244.116 116.857C245.369 114.088 247.132 111.335 249.407 108.599C250.923 106.786 252.44 105.269 253.956 104.05C255.473 102.83 256.94 101.857 258.357 101.132C259.808 100.374 261.16 99.8464 262.412 99.5497C263.698 99.22 264.852 99.0552 265.874 99.0552C267.291 99.0552 268.396 99.3024 269.187 99.7969C269.978 100.291 270.555 100.885 270.918 101.577C271.28 102.236 271.495 102.896 271.561 103.555C271.66 104.214 271.709 104.692 271.709 104.989C271.215 105.714 270.638 106.605 269.978 107.66C269.319 108.714 268.643 109.819 267.951 110.973C267.259 112.094 266.599 113.198 265.973 114.286ZM417.402 117.599C417.27 117.599 417.138 117.583 417.006 117.55C417.6 116.626 418.111 115.588 418.539 114.434C419.001 113.247 419.38 112.061 419.677 110.874C420.006 109.654 420.254 108.451 420.418 107.264C420.583 106.077 420.666 104.989 420.666 104C420.666 102.682 420.534 101.445 420.27 100.291C420.006 99.1376 419.627 98.1486 419.133 97.3244C418.638 96.4673 418.028 95.8079 417.303 95.3464C416.578 94.8519 415.754 94.6047 414.83 94.6047C413.809 94.6047 412.869 94.8849 412.012 95.4453C411.155 96.0058 410.396 96.7805 409.737 97.7695C409.111 98.7255 408.616 99.8464 408.254 101.132C407.891 102.418 407.71 103.786 407.71 105.236C407.71 106.687 407.825 108.105 408.056 109.489C408.32 110.874 408.699 112.176 409.193 113.396C409.688 114.583 410.298 115.654 411.023 116.61C411.748 117.533 412.589 118.275 413.545 118.835C412.424 120.418 411.237 121.918 409.984 123.335C408.732 124.72 407.429 125.923 406.078 126.945C404.726 127.967 403.342 128.775 401.924 129.368C400.506 129.962 399.072 130.258 397.622 130.258C395.743 130.258 394.342 129.698 393.419 128.577C392.495 127.423 392.034 125.808 392.034 123.731C392.034 121.423 392.495 119.05 393.419 116.61C394.375 114.137 395.578 111.764 397.028 109.489C398.512 107.214 400.144 105.121 401.924 103.209C403.737 101.297 405.517 99.7145 407.265 98.4618L405.682 96.3849C404.166 97.0772 402.649 97.9673 401.133 99.0552C399.616 100.143 398.149 101.363 396.732 102.714C395.314 104.066 393.995 105.533 392.776 107.116C391.556 108.665 390.484 110.28 389.561 111.962C388.671 113.643 387.963 115.341 387.435 117.055C386.908 118.769 386.644 120.451 386.644 122.099C386.644 123.747 386.891 125.231 387.386 126.549C387.88 127.868 388.572 129.006 389.463 129.962C390.353 130.918 391.408 131.643 392.627 132.137C393.88 132.665 395.232 132.929 396.682 132.929C398.1 132.929 399.633 132.681 401.281 132.187C402.929 131.725 404.594 130.967 406.276 129.912C407.957 128.857 409.605 127.506 411.221 125.857C412.836 124.176 414.352 122.148 415.77 119.775C416.297 119.907 416.907 119.973 417.6 119.973C419.479 119.973 421.259 119.528 422.94 118.637C423.719 118.225 424.487 117.668 425.244 116.967C425.159 117.758 425.116 118.562 425.116 119.379C425.116 121.555 425.495 123.385 426.253 124.868C427.012 126.319 427.951 127.489 429.072 128.379C430.193 129.269 431.38 129.896 432.633 130.258C433.918 130.621 435.089 130.802 436.143 130.802C438.22 130.802 440.429 130.126 442.77 128.775C445.11 127.39 447.517 125.363 449.99 122.692C450.154 124.044 450.501 125.165 451.028 126.055C451.555 126.912 452.165 127.588 452.858 128.082C453.55 128.577 454.292 128.923 455.083 129.121C455.907 129.319 456.682 129.418 457.407 129.418C458.924 129.418 460.325 129.121 461.61 128.527C462.929 127.901 464.116 127.11 465.171 126.154C466.259 125.198 467.248 124.143 468.138 122.989C468.286 122.791 468.432 122.594 468.575 122.397C468.547 122.751 468.533 123.097 468.533 123.434C468.533 124.951 468.781 126.286 469.275 127.44C469.737 128.593 470.396 129.566 471.253 130.357C472.077 131.148 473.033 131.742 474.121 132.137C475.242 132.566 476.429 132.78 477.682 132.78C478.868 132.78 480.105 132.615 481.39 132.286C482.709 131.989 484.061 131.445 485.445 130.654C486.863 129.863 488.313 128.791 489.797 127.44C491.313 126.088 492.896 124.374 494.544 122.297C494.478 122.561 494.429 122.923 494.396 123.385V124.225C494.396 126.104 494.857 127.637 495.78 128.824C496.703 130.011 498.154 130.604 500.132 130.604C501.484 130.604 502.802 130.341 504.088 129.813C505.374 129.286 506.594 128.577 507.747 127.687C508.934 126.797 510.055 125.775 511.11 124.621C512.165 123.467 513.137 122.28 514.028 121.061C514.951 119.808 515.791 118.572 516.549 117.352C517.308 116.132 517.967 114.995 518.528 113.94L516.747 112.555C516.286 113.28 515.725 114.17 515.066 115.225C514.407 116.247 513.665 117.335 512.841 118.489C512.05 119.61 511.192 120.731 510.269 121.852C509.346 122.973 508.39 123.978 507.401 124.868C506.445 125.758 505.456 126.484 504.434 127.044C503.445 127.604 502.473 127.885 501.517 127.885C500.857 127.885 500.313 127.736 499.885 127.44C499.489 127.11 499.291 126.418 499.291 125.363C499.291 124.308 499.522 123.022 499.984 121.506C500.478 119.956 501.088 118.324 501.813 116.61C502.572 114.863 503.396 113.083 504.286 111.269C505.209 109.456 506.116 107.725 507.006 106.077C507.896 104.396 508.72 102.863 509.478 101.478C510.269 100.094 510.879 98.9728 511.308 98.1156L509.725 97.4233C508.967 98.2805 508.225 99.1211 507.5 99.9453C506.775 100.769 506.083 101.594 505.423 102.418C505.094 100.341 504.154 98.8079 502.605 97.8189C501.055 96.797 498.764 96.286 495.731 96.286C494.379 96.286 492.846 96.5003 491.132 96.9288C489.418 97.3574 487.605 98.0827 485.693 99.1046C483.813 100.094 481.885 101.412 479.907 103.061C477.962 104.709 476.083 106.736 474.27 109.143C473.304 110.405 472.473 111.63 471.775 112.819C471.388 113.426 470.95 114.146 470.462 114.978C469.902 115.934 469.275 116.94 468.583 117.995C467.923 119.05 467.198 120.104 466.407 121.159C465.649 122.214 464.825 123.154 463.935 123.978C463.077 124.802 462.171 125.478 461.215 126.006C460.292 126.533 459.319 126.797 458.297 126.797C457.308 126.797 456.517 126.434 455.924 125.709C455.363 124.984 455.083 123.681 455.083 121.802C455.083 120.78 455.182 119.561 455.38 118.143C455.61 116.692 455.99 114.995 456.517 113.05C457.077 111.105 457.819 108.896 458.742 106.423C459.698 103.918 460.902 101.083 462.352 97.9178C463.275 95.8739 464.33 93.7475 465.517 91.5387C466.737 89.297 467.973 87.0882 469.226 84.9124C470.511 82.7366 471.781 80.6267 473.033 78.5828C474.319 76.5389 475.506 74.6762 476.594 72.9949C477.682 71.3136 478.638 69.8631 479.462 68.6433C480.286 67.4235 480.879 66.5499 481.242 66.0224L479.116 64.6378C477.467 66.3521 475.836 68.1983 474.22 70.1763C472.638 72.1543 471.121 74.1652 469.671 76.2092C468.22 78.2202 466.852 80.2311 465.566 82.2421C464.281 84.2201 463.11 86.0992 462.055 87.8794C461 89.6267 460.077 91.2256 459.286 92.6761C458.495 94.0937 457.869 95.264 457.407 96.1871C456.781 95.6596 455.858 95.1321 454.638 94.6047C453.418 94.0772 451.737 93.8135 449.594 93.8135C447.979 93.8135 446.248 94.1102 444.402 94.7036C442.589 95.297 440.775 96.1376 438.962 97.2255C437.149 98.2805 435.402 99.5826 433.72 101.132C432.072 102.649 430.605 104.363 429.319 106.275C428.034 108.154 427.012 110.198 426.253 112.407L426.222 112.499C426.206 112.548 426.189 112.597 426.173 112.646L426.056 112.555C425.495 113.478 424.918 114.269 424.325 114.929C423.732 115.555 423.105 116.066 422.446 116.462C421.819 116.857 421.127 117.154 420.369 117.352C419.611 117.517 418.77 117.599 417.847 117.599H417.402ZM410.528 108.352C410.363 107.231 410.281 106.192 410.281 105.236C410.281 104.182 410.38 103.176 410.578 102.22C410.809 101.231 411.122 100.374 411.517 99.6486C411.913 98.8903 412.391 98.2969 412.951 97.8684C413.512 97.4068 414.122 97.1761 414.781 97.1761C415.276 97.1761 415.721 97.3574 416.116 97.72C416.545 98.0497 416.891 98.5277 417.155 99.1541C417.451 99.7475 417.682 100.456 417.847 101.28C418.012 102.105 418.094 103.011 418.094 104C418.094 104.725 418.028 105.583 417.896 106.572C417.797 107.528 417.6 108.566 417.303 109.687C417.039 110.808 416.693 111.978 416.265 113.198C415.869 114.385 415.374 115.555 414.781 116.709C413.957 116.181 413.265 115.473 412.704 114.583C412.144 113.659 411.682 112.67 411.319 111.616C410.957 110.561 410.693 109.473 410.528 108.352ZM449.94 118.984C450.105 116.544 450.665 113.676 451.621 110.379C452.61 107.05 454.11 103.225 456.121 98.9068C455.66 98.2145 455.001 97.6871 454.143 97.3244C453.319 96.9288 452.38 96.731 451.325 96.731C449.709 96.731 448.061 97.0607 446.38 97.72C444.731 98.3794 443.132 99.2695 441.583 100.39C440.067 101.511 438.632 102.846 437.281 104.396C435.929 105.912 434.742 107.544 433.72 109.291C432.731 111.039 431.94 112.868 431.347 114.78C430.786 116.659 430.506 118.522 430.506 120.368C430.506 122.841 431.017 124.769 432.039 126.154C433.094 127.538 434.495 128.231 436.242 128.231C437.067 128.231 437.973 128.066 438.962 127.736C439.951 127.407 441.023 126.879 442.176 126.154C443.363 125.396 444.599 124.44 445.885 123.286C447.171 122.099 448.523 120.665 449.94 118.984ZM497.709 114.286C497.083 115.341 496.555 116.214 496.127 116.907C494.94 118.423 493.72 119.973 492.467 121.555C491.215 123.104 489.896 124.522 488.511 125.808C487.127 127.093 485.643 128.148 484.061 128.973C482.478 129.764 480.781 130.159 478.967 130.159C477.385 130.159 476.165 129.648 475.308 128.626C474.451 127.604 474.022 126.154 474.022 124.275C474.022 122.066 474.632 119.593 475.852 116.857C477.105 114.088 478.868 111.335 481.143 108.599C482.66 106.786 484.176 105.269 485.693 104.05C487.209 102.83 488.676 101.857 490.094 101.132C491.544 100.374 492.896 99.8464 494.149 99.5497C495.434 99.22 496.588 99.0552 497.61 99.0552C499.028 99.0552 500.132 99.3024 500.923 99.7969C501.714 100.291 502.291 100.885 502.654 101.577C503.017 102.236 503.231 102.896 503.297 103.555C503.396 104.214 503.445 104.692 503.445 104.989C502.951 105.714 502.374 106.605 501.714 107.66C501.055 108.714 500.379 109.819 499.687 110.973C498.995 112.094 498.335 113.198 497.709 114.286Z" fill="black"/>
<path fill-rule="evenodd" clip-rule="evenodd" d="M279.071 10.7644L279.848 11.5457L280.231 11.2221L280.62 11.5404C283.261 8.58037 286.397 6.16038 289.898 4.65771C293.385 3.18038 297.27 2.75371 300.592 3.88305C303.94 4.97371 306.461 7.67371 308.009 10.939C308.408 11.751 308.745 12.6044 309.028 13.483C309.051 13.5539 309.079 13.6369 309.107 13.7195C309.158 13.8668 309.208 14.0132 309.226 14.0884L309.426 14.8164C309.524 15.18 309.578 15.4593 309.635 15.7571C309.655 15.8644 309.676 15.9741 309.7 16.091C309.99 17.851 310.041 19.6524 309.85 21.459C309.482 25.079 308.194 28.667 306.478 32.0644C304.768 35.4737 302.641 38.7377 300.293 41.8577C297.942 44.9817 295.345 47.947 292.692 50.875C290.004 53.775 287.232 56.619 284.394 59.4204L275.773 67.839C274.32 69.2604 272.809 70.771 271.53 72.5857C270.272 74.3284 269.204 76.2044 268.364 78.191C267.54 80.183 266.932 82.2964 266.76 84.503C266.596 86.6977 266.865 89.0044 267.809 91.071C268.749 93.1404 270.34 94.8244 272.118 96.0457C273.024 96.6524 273.934 97.1804 274.949 97.5897C275.37 97.787 276.002 97.9684 276.528 98.1124C277.068 98.235 277.612 98.335 278.164 98.371C282.637 98.7497 286.866 96.1724 289.06 92.519C290.18 90.687 290.782 88.5177 290.684 86.3484C290.558 84.1804 289.686 82.0804 288.32 80.4577C287.988 80.0404 287.625 79.6564 287.238 79.2964L286.937 79.0057L286.637 78.763C286.386 78.5777 286.145 78.427 285.897 78.2964C284.893 77.7724 283.781 77.571 282.698 77.579C280.53 77.611 278.418 78.4564 276.818 79.903C275.257 81.3604 274.106 83.391 274.176 85.6617C274.221 86.7857 274.65 87.867 275.272 88.7617C275.909 89.663 276.678 90.3897 277.638 90.987L277.672 91.0084L277.716 91.0244C278.218 91.2004 278.665 91.2937 279.156 91.3537C279.638 91.4084 280.13 91.4204 280.624 91.3604C281.609 91.2537 282.601 90.839 283.358 90.1537C284.116 89.467 284.617 88.583 284.96 87.6884C285.304 86.7884 285.481 85.859 285.592 84.9364L284.265 84.803C284.117 86.475 283.684 88.2004 282.544 89.2577C281.981 89.775 281.262 90.0924 280.481 90.191C280.092 90.2444 279.688 90.2404 279.285 90.199C278.906 90.1618 278.494 90.0751 278.162 89.9663C276.64 89.0265 275.325 87.3988 275.285 85.611C275.221 83.8164 276.221 81.9897 277.584 80.7484C278.974 79.5004 280.846 78.7657 282.708 78.7524C283.633 78.7484 284.56 78.931 285.342 79.347C285.54 79.4497 285.721 79.5737 285.876 79.6897L286.157 79.9284L286.39 80.1697C286.734 80.5044 287.054 80.859 287.341 81.239C288.533 82.7244 289.224 84.5497 289.294 86.4084C289.333 88.2684 288.777 90.1337 287.76 91.7137C285.762 94.8697 281.993 97.023 278.346 96.5364C277.893 96.4884 277.452 96.3844 277.013 96.2684C276.901 96.2289 276.794 96.1941 276.689 96.1599C276.39 96.0625 276.106 95.97 275.748 95.7884C274.908 95.411 274.088 94.8857 273.346 94.339C271.85 93.231 270.708 91.7604 270.069 90.1124C268.78 86.7617 269.708 82.8897 271.406 79.6004C272.272 77.9404 273.337 76.3697 274.556 74.9404C275.709 73.5337 277.128 72.2537 278.646 70.963C279.585 70.1551 280.536 69.3497 281.491 68.5411C283.613 66.7447 285.754 64.9322 287.82 63.039C293.848 57.579 299.558 51.651 304.481 44.9764C306.924 41.6297 309.213 38.115 311.026 34.2764C312.818 30.447 314.214 26.291 314.542 21.8657C314.722 19.663 314.574 17.4044 314.093 15.211C313.965 14.671 313.805 14.023 313.653 13.5524L313.421 12.8337C313.345 12.6033 313.283 12.4477 313.222 12.2934C313.187 12.2048 313.152 12.1167 313.114 12.015C312.729 10.9964 312.278 9.99104 311.745 9.01904C310.689 7.07771 309.344 5.22038 307.609 3.72038C305.868 2.24438 303.805 1.07504 301.585 0.520375C297.12 -0.702292 292.536 0.404378 288.806 2.36571C285.38 4.18463 282.474 6.79864 280.233 9.7957C280.231 9.79283 280.229 9.78994 280.227 9.78705C279.804 9.20439 279.108 8.32305 278.184 7.29772C276.273 5.32172 273.22 2.51239 268.437 0.908388C266.069 0.119055 263.239 -0.276943 260.245 0.219057C257.253 0.67239 254.193 2.23372 251.876 4.59372C250.705 5.76039 249.696 7.09106 248.833 8.50706C247.984 9.93106 247.324 11.4497 246.756 12.9977C245.592 16.3217 245.432 19.9417 245.941 23.2804C246.452 26.6391 247.56 29.7711 248.857 32.6804C250.176 35.5844 251.68 38.2991 253.321 40.7804C254.944 43.2724 256.688 45.5377 258.42 47.6031C260.147 49.6724 261.899 51.5137 263.564 53.1564C266.876 56.4591 269.909 58.9017 272.085 60.5364C274.269 62.1644 275.627 62.9657 275.627 62.9657L276.501 61.9591C276.501 61.9591 275.544 60.7657 273.869 58.6777C272.188 56.6031 269.807 53.6377 267.019 50.0857C265.639 48.2977 264.171 46.3484 262.657 44.2804C261.144 42.2097 259.613 39.9951 258.121 37.6724C256.651 35.3391 255.188 32.9057 254.003 30.3324C252.807 27.7684 251.872 25.0764 251.385 22.3924C250.872 19.7124 250.927 17.0404 251.659 14.6337C252.079 13.3377 252.581 12.0991 253.159 10.9351C253.761 9.78972 254.461 8.73772 255.265 7.82439C256.863 5.98039 258.909 4.78039 261.072 4.21505C263.241 3.63372 265.499 3.75372 267.536 4.18172C269.584 4.61639 271.419 5.38439 272.961 6.23505C274.519 7.06839 275.796 7.97772 276.807 8.78172C277.825 9.59772 278.56 10.2604 279.071 10.7644Z" fill="url(#paint0_linear)"/>
<path fill-rule="evenodd" clip-rule="evenodd" d="M5.66683 42H232.333V47.3333H5.66683V167.667H105.333V173H5.66683H0.333496V167.667V47.3333V42H5.66683ZM452.333 173H553H558.333V167.667V47.3333V42H553H325.333V47.3333H553V167.667H452.333V173Z" fill="url(#paint1_linear)"/>
<path d="M121.823 168.594C122.717 168.956 123.594 169.337 124.452 169.736C125.347 170.117 126.134 170.543 126.813 171.015C127.529 171.468 128.101 171.985 128.53 172.565C128.96 173.127 129.174 173.771 129.174 174.496C129.174 175.04 128.96 175.557 128.53 176.047C128.137 176.518 127.582 176.935 126.867 177.298C126.187 177.643 125.382 177.924 124.452 178.141C123.522 178.341 122.521 178.441 121.447 178.441C120.374 178.441 119.355 178.341 118.389 178.141C117.459 177.924 116.636 177.643 115.92 177.298C115.241 176.935 114.686 176.518 114.257 176.047C113.863 175.557 113.667 175.04 113.667 174.496H115.438C115.438 174.913 115.598 175.312 115.92 175.693C116.242 176.056 116.672 176.373 117.208 176.645C117.745 176.917 118.371 177.135 119.086 177.298C119.838 177.461 120.625 177.543 121.447 177.543C122.27 177.543 123.039 177.461 123.755 177.298C124.47 177.135 125.096 176.917 125.633 176.645C126.169 176.373 126.599 176.056 126.921 175.693C127.243 175.312 127.404 174.913 127.404 174.496C127.404 173.88 127.207 173.327 126.813 172.837C126.456 172.347 125.955 171.903 125.311 171.504C124.703 171.087 123.987 170.706 123.164 170.362C122.377 169.999 121.555 169.645 120.696 169.301C119.838 168.956 118.979 168.603 118.12 168.24C117.298 167.859 116.546 167.451 115.867 167.016C115.223 166.581 114.686 166.1 114.257 165.574C113.863 165.048 113.667 164.441 113.667 163.752C113.667 163.208 113.863 162.7 114.257 162.228C114.686 161.739 115.241 161.322 115.92 160.977C116.636 160.614 117.459 160.333 118.389 160.134C119.355 159.916 120.374 159.807 121.447 159.807C122.521 159.807 123.522 159.916 124.452 160.134C125.382 160.333 126.187 160.614 126.867 160.977C127.582 161.322 128.137 161.739 128.53 162.228C128.96 162.7 129.174 163.208 129.174 163.752H127.404C127.404 163.335 127.243 162.945 126.921 162.582C126.599 162.219 126.169 161.902 125.633 161.63C125.096 161.358 124.47 161.14 123.755 160.977C123.039 160.814 122.27 160.732 121.447 160.732C120.625 160.732 119.838 160.814 119.086 160.977C118.371 161.14 117.745 161.358 117.208 161.63C116.672 161.902 116.242 162.219 115.92 162.582C115.598 162.945 115.438 163.335 115.438 163.752C115.438 164.332 115.616 164.849 115.974 165.302C116.332 165.737 116.797 166.145 117.369 166.526C117.977 166.907 118.657 167.27 119.408 167.614C120.195 167.941 121 168.267 121.823 168.594Z" fill="black"/>
<path d="M161.873 159.916V174.469C161.873 175.013 161.658 175.53 161.229 176.02C160.836 176.491 160.281 176.908 159.566 177.271C158.886 177.616 158.081 177.897 157.151 178.114C156.221 178.314 155.219 178.413 154.146 178.413C153.073 178.413 152.053 178.314 151.087 178.114C150.157 177.897 149.335 177.616 148.619 177.271C147.939 176.908 147.385 176.491 146.956 176.02C146.562 175.53 146.365 175.013 146.365 174.469V159.916H148.136V174.469C148.136 174.886 148.297 175.285 148.619 175.666C148.941 176.029 149.37 176.346 149.907 176.618C150.444 176.89 151.07 177.108 151.785 177.271C152.536 177.434 153.323 177.516 154.146 177.516C154.969 177.516 155.738 177.434 156.453 177.271C157.169 177.108 157.795 176.89 158.331 176.618C158.868 176.346 159.297 176.029 159.619 175.666C159.941 175.285 160.102 174.886 160.102 174.469V159.916H161.873Z" fill="black"/>
<path d="M187.22 168.594C188.115 168.956 188.991 169.337 189.85 169.736C190.744 170.117 191.531 170.543 192.211 171.015C192.926 171.468 193.498 171.985 193.928 172.565C194.357 173.127 194.572 173.771 194.572 174.496C194.572 175.04 194.357 175.557 193.928 176.047C193.534 176.518 192.98 176.935 192.264 177.298C191.585 177.643 190.78 177.924 189.85 178.141C188.919 178.341 187.918 178.441 186.845 178.441C185.771 178.441 184.752 178.341 183.786 178.141C182.856 177.924 182.033 177.643 181.318 177.298C180.638 176.935 180.084 176.518 179.654 176.047C179.261 175.557 179.064 175.04 179.064 174.496H180.835C180.835 174.913 180.996 175.312 181.318 175.693C181.64 176.056 182.069 176.373 182.606 176.645C183.142 176.917 183.768 177.135 184.484 177.298C185.235 177.461 186.022 177.543 186.845 177.543C187.667 177.543 188.437 177.461 189.152 177.298C189.867 177.135 190.493 176.917 191.03 176.645C191.567 176.373 191.996 176.056 192.318 175.693C192.64 175.312 192.801 174.913 192.801 174.496C192.801 173.88 192.604 173.327 192.211 172.837C191.853 172.347 191.352 171.903 190.708 171.504C190.1 171.087 189.385 170.706 188.562 170.362C187.775 169.999 186.952 169.645 186.093 169.301C185.235 168.956 184.376 168.603 183.518 168.24C182.695 167.859 181.944 167.451 181.264 167.016C180.62 166.581 180.084 166.1 179.654 165.574C179.261 165.048 179.064 164.441 179.064 163.752C179.064 163.208 179.261 162.7 179.654 162.228C180.084 161.739 180.638 161.322 181.318 160.977C182.033 160.614 182.856 160.333 183.786 160.134C184.752 159.916 185.771 159.807 186.845 159.807C187.918 159.807 188.919 159.916 189.85 160.134C190.78 160.333 191.585 160.614 192.264 160.977C192.98 161.322 193.534 161.739 193.928 162.228C194.357 162.7 194.572 163.208 194.572 163.752H192.801C192.801 163.335 192.64 162.945 192.318 162.582C191.996 162.219 191.567 161.902 191.03 161.63C190.493 161.358 189.867 161.14 189.152 160.977C188.437 160.814 187.667 160.732 186.845 160.732C186.022 160.732 185.235 160.814 184.484 160.977C183.768 161.14 183.142 161.358 182.606 161.63C182.069 161.902 181.64 162.219 181.318 162.582C180.996 162.945 180.835 163.335 180.835 163.752C180.835 164.332 181.014 164.849 181.371 165.302C181.729 165.737 182.194 166.145 182.767 166.526C183.375 166.907 184.054 167.27 184.806 167.614C185.593 167.941 186.397 168.267 187.22 168.594Z" fill="black"/>
<path d="M225.351 159.916V160.841H218.107V178.305H216.336V160.841H209.092V159.916H225.351Z" fill="black"/>
<path d="M255.01 160.841H242.669V167.778H252.81V168.675H242.669V177.407H255.01V178.305H240.898V159.916H255.01V160.841Z" fill="black"/>
<path d="M284.28 159.916H286.051V178.305H284.28L272.905 162.419V178.305H271.134V159.916H272.905L284.28 175.802V159.916Z" fill="black"/>
<path d="M317.316 159.916V160.841H310.072V178.305H308.301V160.841H301.057V159.916H317.316Z" fill="black"/>
<path d="M348.544 178.305L346.022 172.538H335.612L333.09 178.305H331.266L339.315 159.916H342.32L350.369 178.305H348.544ZM335.988 171.64H345.647L340.817 160.651L335.988 171.64Z" fill="black"/>
<path d="M377.251 166.989C378.753 167.261 379.987 167.732 380.953 168.403C381.919 169.056 382.402 169.809 382.402 170.661V174.415C382.402 174.959 382.187 175.467 381.758 175.938C381.364 176.41 380.81 176.827 380.095 177.189C379.415 177.534 378.61 177.806 377.68 178.005C376.75 178.205 375.748 178.305 374.675 178.305H365.928V159.916H372.904C373.977 159.916 374.979 160.016 375.909 160.215C376.839 160.415 377.644 160.696 378.324 161.059C379.039 161.403 379.594 161.811 379.987 162.283C380.416 162.754 380.631 163.262 380.631 163.806C380.631 164.477 380.327 165.094 379.719 165.656C379.111 166.2 378.288 166.644 377.251 166.989ZM367.699 160.814V166.771H373.119C373.906 166.753 374.639 166.671 375.319 166.526C376.034 166.363 376.642 166.145 377.143 165.873C377.68 165.601 378.091 165.293 378.377 164.949C378.699 164.586 378.86 164.205 378.86 163.806C378.86 163.389 378.699 162.999 378.377 162.636C378.055 162.274 377.626 161.956 377.09 161.684C376.553 161.412 375.927 161.204 375.212 161.059C374.496 160.895 373.727 160.814 372.904 160.814H367.699ZM380.631 170.661C380.631 170.262 380.47 169.881 380.148 169.518C379.862 169.156 379.451 168.838 378.914 168.566C378.413 168.294 377.805 168.086 377.09 167.941C376.374 167.778 375.605 167.687 374.782 167.669H367.699V177.407H374.675C375.498 177.407 376.267 177.334 376.982 177.189C377.698 177.026 378.324 176.809 378.86 176.537C379.397 176.265 379.826 175.947 380.148 175.584C380.47 175.222 380.631 174.832 380.631 174.415V170.661Z" fill="black"/>
<path d="M401.341 177.407H412.824V178.305H399.57V159.916H401.341V177.407Z" fill="black"/>
<path d="M441.98 160.841H429.638V167.778H439.78V168.675H429.638V177.407H441.98V178.305H427.867V159.916H441.98V160.841Z" fill="black"/>
<path d="M121.823 168.594C122.717 168.956 123.594 169.337 124.452 169.736C125.347 170.117 126.134 170.543 126.813 171.015C127.529 171.468 128.101 171.985 128.53 172.565C128.96 173.127 129.174 173.771 129.174 174.496C129.174 175.04 128.96 175.557 128.53 176.047C128.137 176.518 127.582 176.935 126.867 177.298C126.187 177.643 125.382 177.924 124.452 178.141C123.522 178.341 122.521 178.441 121.447 178.441C120.374 178.441 119.355 178.341 118.389 178.141C117.459 177.924 116.636 177.643 115.92 177.298C115.241 176.935 114.686 176.518 114.257 176.047C113.863 175.557 113.667 175.04 113.667 174.496H115.438C115.438 174.913 115.598 175.312 115.92 175.693C116.242 176.056 116.672 176.373 117.208 176.645C117.745 176.917 118.371 177.135 119.086 177.298C119.838 177.461 120.625 177.543 121.447 177.543C122.27 177.543 123.039 177.461 123.755 177.298C124.47 177.135 125.096 176.917 125.633 176.645C126.169 176.373 126.599 176.056 126.921 175.693C127.243 175.312 127.404 174.913 127.404 174.496C127.404 173.88 127.207 173.327 126.813 172.837C126.456 172.347 125.955 171.903 125.311 171.504C124.703 171.087 123.987 170.706 123.164 170.362C122.377 169.999 121.555 169.645 120.696 169.301C119.838 168.956 118.979 168.603 118.12 168.24C117.298 167.859 116.546 167.451 115.867 167.016C115.223 166.581 114.686 166.1 114.257 165.574C113.863 165.048 113.667 164.441 113.667 163.752C113.667 163.208 113.863 162.7 114.257 162.228C114.686 161.739 115.241 161.322 115.92 160.977C116.636 160.614 117.459 160.333 118.389 160.134C119.355 159.916 120.374 159.807 121.447 159.807C122.521 159.807 123.522 159.916 124.452 160.134C125.382 160.333 126.187 160.614 126.867 160.977C127.582 161.322 128.137 161.739 128.53 162.228C128.96 162.7 129.174 163.208 129.174 163.752H127.404C127.404 163.335 127.243 162.945 126.921 162.582C126.599 162.219 126.169 161.902 125.633 161.63C125.096 161.358 124.47 161.14 123.755 160.977C123.039 160.814 122.27 160.732 121.447 160.732C120.625 160.732 119.838 160.814 119.086 160.977C118.371 161.14 117.745 161.358 117.208 161.63C116.672 161.902 116.242 162.219 115.92 162.582C115.598 162.945 115.438 163.335 115.438 163.752C115.438 164.332 115.616 164.849 115.974 165.302C116.332 165.737 116.797 166.145 117.369 166.526C117.977 166.907 118.657 167.27 119.408 167.614C120.195 167.941 121 168.267 121.823 168.594Z" stroke="black"/>
<path d="M161.873 159.916V174.469C161.873 175.013 161.658 175.53 161.229 176.02C160.836 176.491 160.281 176.908 159.566 177.271C158.886 177.616 158.081 177.897 157.151 178.114C156.221 178.314 155.219 178.413 154.146 178.413C153.073 178.413 152.053 178.314 151.087 178.114C150.157 177.897 149.335 177.616 148.619 177.271C147.939 176.908 147.385 176.491 146.956 176.02C146.562 175.53 146.365 175.013 146.365 174.469V159.916H148.136V174.469C148.136 174.886 148.297 175.285 148.619 175.666C148.941 176.029 149.37 176.346 149.907 176.618C150.444 176.89 151.07 177.108 151.785 177.271C152.536 177.434 153.323 177.516 154.146 177.516C154.969 177.516 155.738 177.434 156.453 177.271C157.169 177.108 157.795 176.89 158.331 176.618C158.868 176.346 159.297 176.029 159.619 175.666C159.941 175.285 160.102 174.886 160.102 174.469V159.916H161.873Z" stroke="black"/>
<path d="M187.22 168.594C188.115 168.956 188.991 169.337 189.85 169.736C190.744 170.117 191.531 170.543 192.211 171.015C192.926 171.468 193.498 171.985 193.928 172.565C194.357 173.127 194.572 173.771 194.572 174.496C194.572 175.04 194.357 175.557 193.928 176.047C193.534 176.518 192.98 176.935 192.264 177.298C191.585 177.643 190.78 177.924 189.85 178.141C188.919 178.341 187.918 178.441 186.845 178.441C185.771 178.441 184.752 178.341 183.786 178.141C182.856 177.924 182.033 177.643 181.318 177.298C180.638 176.935 180.084 176.518 179.654 176.047C179.261 175.557 179.064 175.04 179.064 174.496H180.835C180.835 174.913 180.996 175.312 181.318 175.693C181.64 176.056 182.069 176.373 182.606 176.645C183.142 176.917 183.768 177.135 184.484 177.298C185.235 177.461 186.022 177.543 186.845 177.543C187.667 177.543 188.437 177.461 189.152 177.298C189.867 177.135 190.493 176.917 191.03 176.645C191.567 176.373 191.996 176.056 192.318 175.693C192.64 175.312 192.801 174.913 192.801 174.496C192.801 173.88 192.604 173.327 192.211 172.837C191.853 172.347 191.352 171.903 190.708 171.504C190.1 171.087 189.385 170.706 188.562 170.362C187.775 169.999 186.952 169.645 186.093 169.301C185.235 168.956 184.376 168.603 183.518 168.24C182.695 167.859 181.944 167.451 181.264 167.016C180.62 166.581 180.084 166.1 179.654 165.574C179.261 165.048 179.064 164.441 179.064 163.752C179.064 163.208 179.261 162.7 179.654 162.228C180.084 161.739 180.638 161.322 181.318 160.977C182.033 160.614 182.856 160.333 183.786 160.134C184.752 159.916 185.771 159.807 186.845 159.807C187.918 159.807 188.919 159.916 189.85 160.134C190.78 160.333 191.585 160.614 192.264 160.977C192.98 161.322 193.534 161.739 193.928 162.228C194.357 162.7 194.572 163.208 194.572 163.752H192.801C192.801 163.335 192.64 162.945 192.318 162.582C191.996 162.219 191.567 161.902 191.03 161.63C190.493 161.358 189.867 161.14 189.152 160.977C188.437 160.814 187.667 160.732 186.845 160.732C186.022 160.732 185.235 160.814 184.484 160.977C183.768 161.14 183.142 161.358 182.606 161.63C182.069 161.902 181.64 162.219 181.318 162.582C180.996 162.945 180.835 163.335 180.835 163.752C180.835 164.332 181.014 164.849 181.371 165.302C181.729 165.737 182.194 166.145 182.767 166.526C183.375 166.907 184.054 167.27 184.806 167.614C185.593 167.941 186.397 168.267 187.22 168.594Z" stroke="black"/>
<path d="M225.351 159.916V160.841H218.107V178.305H216.336V160.841H209.092V159.916H225.351Z" stroke="black"/>
<path d="M255.01 160.841H242.669V167.778H252.81V168.675H242.669V177.407H255.01V178.305H240.898V159.916H255.01V160.841Z" stroke="black"/>
<path d="M284.28 159.916H286.051V178.305H284.28L272.905 162.419V178.305H271.134V159.916H272.905L284.28 175.802V159.916Z" stroke="black"/>
<path d="M317.316 159.916V160.841H310.072V178.305H308.301V160.841H301.057V159.916H317.316Z" stroke="black"/>
<path d="M348.544 178.305L346.022 172.538H335.612L333.09 178.305H331.266L339.315 159.916H342.32L350.369 178.305H348.544ZM335.988 171.64H345.647L340.817 160.651L335.988 171.64Z" stroke="black"/>
<path d="M377.251 166.989C378.753 167.261 379.987 167.732 380.953 168.403C381.919 169.056 382.402 169.809 382.402 170.661V174.415C382.402 174.959 382.187 175.467 381.758 175.938C381.364 176.41 380.81 176.827 380.095 177.189C379.415 177.534 378.61 177.806 377.68 178.005C376.75 178.205 375.748 178.305 374.675 178.305H365.928V159.916H372.904C373.977 159.916 374.979 160.016 375.909 160.215C376.839 160.415 377.644 160.696 378.324 161.059C379.039 161.403 379.594 161.811 379.987 162.283C380.416 162.754 380.631 163.262 380.631 163.806C380.631 164.477 380.327 165.094 379.719 165.656C379.111 166.2 378.288 166.644 377.251 166.989ZM367.699 160.814V166.771H373.119C373.906 166.753 374.639 166.671 375.319 166.526C376.034 166.363 376.642 166.145 377.143 165.873C377.68 165.601 378.091 165.293 378.377 164.949C378.699 164.586 378.86 164.205 378.86 163.806C378.86 163.389 378.699 162.999 378.377 162.636C378.055 162.274 377.626 161.956 377.09 161.684C376.553 161.412 375.927 161.204 375.212 161.059C374.496 160.895 373.727 160.814 372.904 160.814H367.699ZM380.631 170.661C380.631 170.262 380.47 169.881 380.148 169.518C379.862 169.156 379.451 168.838 378.914 168.566C378.413 168.294 377.805 168.086 377.09 167.941C376.374 167.778 375.605 167.687 374.782 167.669H367.699V177.407H374.675C375.498 177.407 376.267 177.334 376.982 177.189C377.698 177.026 378.324 176.809 378.86 176.537C379.397 176.265 379.826 175.947 380.148 175.584C380.47 175.222 380.631 174.832 380.631 174.415V170.661Z" stroke="black"/>
<path d="M401.341 177.407H412.824V178.305H399.57V159.916H401.341V177.407Z" stroke="black"/>
<path d="M441.98 160.841H429.638V167.778H439.78V168.675H429.638V177.407H441.98V178.305H427.867V159.916H441.98V160.841Z" stroke="black"/>
<defs>
<linearGradient id="paint0_linear" x1="245.667" y1="49.204" x2="314.616" y2="49.204" gradientUnits="userSpaceOnUse">
<stop stop-color="#EC008C"/>
<stop offset="1" stop-color="#FC6767"/>
</linearGradient>
<linearGradient id="paint1_linear" x1="0.333496" y1="107.5" x2="558.333" y2="107.5" gradientUnits="userSpaceOnUse">
<stop stop-color="#EC008C"/>
<stop offset="1" stop-color="#FC6767"/>
</linearGradient>
</defs>
</svg>
